#!OML:ASF I:\Actors\actors\Patient Classification 2\Patient 1\Session 1\actor1.ASF
:FULLY-SPECIFIED
:DEGREES
839
root -0.375966 18.8362 3.76384 13.2148 -1.67302 -1.41958
lowerback 42.0771 1.47182 -3.35257
upperback 8.77785 0.213635 -1.05353
thorax -10.21 0.143165 0.508236
lowerneck -25.5412 -1.11471 1.95751
upperneck 23.6102 -2.84419 1.72532
head 12.0066 -0.839944 -0.168979
rclavicle 9.93923e-015 7.55382e-015
rhumerus -2.66321 24.7482 -82.6533
rradius 84.1281
rwrist 4.38049
rhand -40.0994 -36.0195
rfingers 7.12502
rthumb -13.0636 294.41
lclavicle 9.93923e-015 7.55382e-015
lhumerus 17.7911 -22.9487 66.1484
lradius 73.1458
lwrist 15.7477
lhand -17.3207 -47.3092
lfingers 7.12502
lthumb 8.92586 -17.518
rfemur 0 0 0
rtibia 0
rfoot 0 0
rtoes 0
lfemur -28.1765 2.85361 -13.2482
ltibia 26.6656
lfoot -13.3804 8.96437
ltoes -55.4514
840
root -0.371744 18.8366 3.76715 13.2422 -1.65045 -1.39448
lowerback 42.0772 1.40153 -3.31774
upperback 8.61109 0.142043 -1.03572
thorax -10.3987 0.114318 0.539702
lowerneck -25.1864 -1.0554 2.04244
upperneck 23.6424 -2.74288 1.58458
head 11.9477 -0.809101 -0.216294
rclavicle -1.98785e-015 1.59028e-015
rhumerus -3.2107 24.603 -82.7649
rradius 84.9802
rwrist 3.78286
rhand -38.5502 -35.245
rfingers 7.12502
rthumb -11.5699 295.094
lclavicle -1.98785e-015 1.59028e-015
lhumerus 16.3758 -22.1668 67.1715
lradius 74.518
lwrist 16.7887
lhand -15.6326 -45.5055
lfingers 7.12502
lthumb 10.5545 -15.7905
rfemur 0 0 0
rtibia 0
rfoot 0 0
rtoes 0
lfemur -28.1925 2.84062 -13.2857
ltibia 26.647
lfoot -13.4058 8.90387
ltoes -55.3173
841
root -0.367516 18.8368 3.77132 13.2054 -1.6533 -1.38936
lowerback 42.104 1.32699 -3.25688
upperback 8.48285 0.0707135 -1.05208
thorax -10.5521 0.0846969 0.520918
lowerneck -24.9799 -0.991233 2.05618
upperneck 23.7763 -2.67663 1.65383
head 11.9621 -0.768221 -0.180387
rclavicle -3.18055e-015 -4.77083e-015
rhumerus -3.7989 24.4443 -82.8612
rradius 86.0424
rwrist 3.30985
rhand -36.2771 -34.7997
rfingers 7.12502
rthumb -9.37715 295.429
lclavicle -3.18055e-015 -4.77083e-015
lhumerus 14.814 -21.1338 68.5269
lradius 75.8649
lwrist 17.1864
lhand -14.0797 -43.1708
lfingers 7.12502
lthumb 12.0523 -13.5379
rfemur 0 0 0
rtibia 0
rfoot 0 0
rtoes 0
lfemur -28.129 2.8931 -13.3204
ltibia 26.6265
lfoot -13.4031 8.84709
ltoes -55.3175
842
root -0.363839 18.8367 3.7759 13.1426 -1.66451 -1.42628
lowerback 42.1508 1.23364 -3.11036
upperback 8.4097 0.00532925 -1.12033
thorax -10.6502 0.0555969 0.399571
lowerneck -24.7859 -0.923932 2.24419
upperneck 23.7186 -2.6256 1.58079
head 11.8993 -0.740988 -0.228841
rclavicle 4.77083e-015 6.36111e-015
rhumerus -4.3342 24.2701 -82.8675
rradius 87.3207
rwrist 2.95272
rhand -33.722 -34.7063
rfingers 7.12502
rthumb -6.91124 295.427
lclavicle 4.77083e-015 6.36111e-015
lhumerus 13.2884 -20.0295 69.8831
lradius 77.3427
lwrist 17.0955
lhand -12.3214 -40.4067
lfingers 7.12502
lthumb 13.7473 -10.8809
rfemur 0 0 0
rtibia 0
rfoot 0 0
rtoes 0
lfemur -28.0238 2.94538 -13.3095
ltibia 26.5949
lfoot -13.3741 8.84372
ltoes -55.4182
843
root -0.36095 18.8373 3.78152 13.0683 -1.68626 -1.40914
lowerback 41.9562 1.18761 -3.09545
upperback 8.53648 -0.0362525 -1.14554
thorax -10.4459 0.0335782 0.384519
lowerneck -24.6507 -0.894425 2.37401
upperneck 23.4738 -2.5931 1.48283
head 11.7755 -0.733975 -0.279765
rclavicle 5.56597e-015 -3.18055e-015
rhumerus -4.53841 24.2106 -82.5437
rradius 88.7368
rwrist 2.22885
rhand -31.1938 -34.4847
rfingers 7.12502
rthumb -4.47031 295.582
lclavicle 5.56597e-015 -3.18055e-015
lhumerus 11.9068 -18.8954 71.0828
lradius 79.1015
lwrist 16.7707
lhand -10.359 -37.3031
lfingers 7.12502
lthumb 15.6379 -7.91516
rfemur 0 0 0
rtibia 0
rfoot 0 0
rtoes 0
lfemur -27.8934 2.97367 -13.35
ltibia 26.5518
lfoot -13.3617 8.85073
ltoes -55.5164
844
root -0.359123 18.8388 3.78685 13.0211 -1.7338 -1.32443
lowerback 41.8427 1.1843 -3.18695
upperback 8.58269 -0.0744333 -1.16184
thorax -10.3566 0.0166112 0.431516
lowerneck -24.5842 -0.874717 2.37982
upperneck 23.4189 -2.5805 1.54064
head 11.743 -0.721716 -0.256468
rclavicle -2.38542e-015 9.93923e-015
rhumerus -4.86615 24.3259 -82.1651
rradius 90.3523
rwrist 0.966735
rhand -28.6302 -34.5602
rfingers 7.12502
rthumb -1.99452 295.469
lclavicle -2.38542e-015 9.93923e-015
lhumerus 10.3431 -17.9961 72.049
lradius 81.1154
lwrist 16.3374
lhand -8.4104 -34.1215
lfingers 7.12502
lthumb 17.5139 -4.89041
rfemur 0 0 0
rtibia 0
rfoot 0 0
rtoes 0
lfemur -27.787 3.00895 -13.462
ltibia 26.5059
lfoot -13.378 8.83024
ltoes -55.553
845
root -0.357829 18.8401 3.7905 13.0362 -1.79246 -1.26307
lowerback 41.6411 1.17782 -3.24777
upperback 8.63959 -0.102612 -1.2008
thorax -10.2289 0.00320986 0.434606
lowerneck -24.6117 -0.836583 2.40769
upperneck 23.4609 -2.56929 1.64003
head 11.7665 -0.699684 -0.222406
rclavicle 0 6.75868e-015
rhumerus -5.17634 24.4611 -81.823
rradius 92.1042
rwrist -0.358637
rhand -26.2169 -35.0958
rfingers 7.12502
rthumb 0.336269 294.925
lclavicle 0 6.75868e-015
lhumerus 8.82863 -17.3966 72.6766
lradius 83.1167
lwrist 15.9149
lhand -6.96603 -31.2827
lfingers 7.12502
lthumb 18.9035 -2.18124
rfemur 0 0 0
rtibia 0
rfoot 0 0
rtoes 0
lfemur -27.7586 3.04518 -13.5441
ltibia 26.4622
lfoot -13.403 8.82552
ltoes -55.518
846
root -0.356402 18.8416 3.79342 13.1018 -1.8392 -1.22984
lowerback 41.5421 1.12659 -3.16695
upperback 8.57531 -0.145574 -1.32224
thorax -10.2723 -0.0145142 0.28115
lowerneck -24.6215 -0.834216 2.46299
upperneck 23.5853 -2.63164 1.77667
head 11.8187 -0.70113 -0.191503
rclavicle -5.56597e-015 3.57812e-015
rhumerus -5.60376 24.4296 -81.6855
rradius 93.889
rwrist -1.17359
rhand -24.9204 -35.1332
rfingers 7.12502
rthumb 1.58848 294.893
lclavicle -5.56597e-015 3.57812e-015
lhumerus 7.31491 -17.3112 72.9516
lradius 84.9027
lwrist 15.6573
lhand -6.40991 -29.1329
lfingers 7.12502
lthumb 19.4383 -0.0845173
rfemur 0 0 0
rtibia 0
rfoot 0 0
rtoes 0
lfemur -27.792 3.05351 -13.5858
ltibia 26.4202
lfoot -13.4239 8.8388
ltoes -55.444
847
root -0.356196 18.8433 3.79485 13.1946 -1.8946 -1.15142
lowerback 41.4064 1.13309 -3.14853
upperback 8.51112 -0.137335 -1.40478
thorax -10.3043 -0.00903107 0.18009
lowerneck -24.5126 -0.882411 2.46697
upperneck 23.555 -2.71383 1.841
head 11.7875 -0.730139 -0.181427
rclavicle 0 -8.74653e-015
rhumerus -5.87413 24.2874 -81.4625
rradius 95.6248
rwrist -1.65548
rhand -24.845 -34.7071
rfingers 7.12502
rthumb 1.66125 295.32
lclavicle 0 -8.74653e-015
lhumerus 6.06396 -17.6976 73.0407
lradius 86.3235
lwrist 15.3934
lhand -6.50689 -28.0404
lfingers 7.12502
lthumb 19.345 1.01737
rfemur 0 0 0
rtibia 0
rfoot 0 0
rtoes 0
lfemur -27.8604 3.08649 -13.6812
ltibia 26.3814
lfoot -13.3989 8.83968
ltoes -55.391
848
root -0.356655 18.8441 3.79471 13.2936 -1.95038 -1.04787
lowerback 41.2519 1.19259 -3.18572
upperback 8.45242 -0.0781087 -1.42606
thorax -10.3236 0.0192005 0.152106
lowerneck -24.2756 -0.940748 2.44457
upperneck 23.3892 -2.75526 1.78526
head 11.6774 -0.763774 -0.203684
rclavicle 3.97569e-015 -3.57812e-015
rhumerus -5.87968 24.1002 -81.1242
rradius 97.1998
rwrist -2.27334
rhand -25.3916 -34.1527
rfingers 7.12502
rthumb 1.13335 295.871
lclavicle 3.97569e-015 -3.57812e-015
lhumerus 5.1047 -18.4474 73.1056
lradius 87.3772
lwrist 14.9993
lhand -6.86153 -27.8221
lfingers 7.12502
lthumb 19.004 1.26955
rfemur 0 0 0
rtibia 0
rfoot 0 0
rtoes 0
lfemur -27.9521 3.12949 -13.809
ltibia 26.3516
lfoot -13.3688 8.84724
ltoes -55.3526
849
root -0.356669 18.8438 3.79404 13.3598 -1.97658 -0.984154
lowerback 41.0925 1.26928 -3.21515
upperback 8.4082 0.0131325 -1.39545
thorax -10.3253 0.0607279 0.162527
lowerneck -23.944 -0.995434 2.45548
upperneck 23.1699 -2.77228 1.63632
head 11.5269 -0.797848 -0.26079
rclavicle -3.97569e-016 5.96354e-015
rhumerus -5.60564 23.8799 -80.7501
rradius 98.4873
rwrist -3.1427
rhand -25.7851 -33.3903
rfingers 7.12502
rthumb 0.753332 296.631
lclavicle -3.97569e-016 5.96354e-015
lhumerus 4.36383 -19.3645 73.2661
lradius 88.208
lwrist 14.5847
lhand -6.83544 -28.1697
lfingers 7.12502
lthumb 19.0291 0.919476
rfemur 0 0 0
rtibia 0
rfoot 0 0
rtoes 0
lfemur -28.0202 3.11884 -13.8799
ltibia 26.3296
lfoot -13.3867 8.86332
ltoes -55.2824
850
root -0.356873 18.8435 3.79339 13.3617 -1.97587 -0.989397
lowerback 40.9339 1.3259 -3.1989
upperback 8.41252 0.101874 -1.35037
thorax -10.2724 0.0991931 0.16635
lowerneck -23.7726 -1.03519 2.50218
upperneck 23.122 -2.79353 1.48473
head 11.472 -0.825728 -0.326673
rclavicle 1.19271e-014 -1.43125e-014
rhumerus -4.98213 23.6839 -80.3787
rradius 99.4161
rwrist -4.19917
rhand -25.5734 -32.5865
rfingers 7.12502
rthumb 0.957807 297.436
lclavicle 1.19271e-014 -1.43125e-014
lhumerus 3.91576 -20.2047 73.5099
lradius 88.8735
lwrist 14.2369
lhand -5.83704 -28.6553
lfingers 7.12502
lthumb 19.989 0.336584
rfemur 0 0 0
rtibia 0
rfoot 0 0
rtoes 0
lfemur -28.0177 3.10692 -13.8743
ltibia 26.3169
lfoot -13.3979 8.87889
ltoes -55.2533
851
root -0.356961 18.8432 3.79331 13.2996 -1.95203 -1.02685
lowerback 40.815 1.34454 -3.1198
upperback 8.44823 0.165536 -1.33075
thorax -10.1965 0.125353 0.120862
lowerneck -23.878 -1.04739 2.5311
upperneck 23.3455 -2.81464 1.42204
head 11.5753 -0.835231 -0.359866
rclavicle 8.74653e-015 1.31198e-014
rhumerus -4.09677 23.5824 -80.0913
rradius 100.105
rwrist -5.34459
rhand -24.1605 -32.9365
rfingers 7.12502
rthumb 2.32231 297.096
lclavicle 8.74653e-015 1.31198e-014
lhumerus 3.78729 -21.0064 73.7838
lradius 89.2909
lwrist 14.0093
lhand -4.41333 -28.7787
lfingers 7.12502
lthumb 21.357 0.0643558
rfemur 0 0 0
rtibia 0
rfoot 0 0
rtoes 0
lfemur -27.9491 3.08946 -13.8363
ltibia 26.3223
lfoot -13.3917 8.91544
ltoes -55.318
